<svg width="32" height="32" viewBox="0 0 180 180" fill="none" xmlns="http://www.w3.org/2000/svg" aria-hidden="true">
  <path d="M49.1576 54.7328L69.5749 0.905273H89.9923L67.7188 67.7256L0.898438 86.2869V66.2408L49.1576 54.7328Z" fill="#22c55e"/>
  <path d="M130.829 125.276L114.124 179.104L93.7063 179.104L112.268 112.283L179.088 90.0097L179.088 110.427L130.829 125.276Z" fill="#22c55e"/>
  <path d="M49.1576 125.276L0.898438 110.427L0.898438 90.0097L67.7188 112.283L89.9923 179.104H69.5749L49.1576 125.276Z" fill="#22c55e"/>
  <path d="M130.829 54.7328L179.088 65.8695V86.2869L113.007 67.7256L93.7034 0.905273L114.124 0.905273L130.829 54.7328Z" fill="#22c55e"/>
  <path d="M86.0587 36.1891L138.558 12.5645L152.995 27.0018L89.9961 58.5012L29.6222 24.3768L43.7969 10.2021L86.0587 36.1891Z" fill="#22c55e"/>
  <path d="M93.9335 143.808L44.0594 170.057L29.6222 155.62L89.9961 121.496L152.995 152.995L138.558 167.433L93.9335 143.808Z" fill="#22c55e"/>
  <path d="M36.192 86.0655L12.5675 41.4413L27.0047 27.0041L58.5041 90.0029L27.0047 153.002L12.5675 138.565L36.192 86.0655Z" fill="#22c55e"/>
  <path d="M143.81 93.9404L170.059 135.94L155.622 150.377L122.021 90.5259L155.62 29.627L170.059 44.0663L143.81 93.9404Z" fill="#22c55e"/>
</svg>
